<svg width="512" height="512" xmlns="http://www.w3.org/2000/svg">
<!-- <linearGradient id="grad1" x1="0%" y1="0%" x2="100%" y2="100%">
                    <stop offset="0%" style="stop-color:#4b0082;stop-opacity:1" />
                    <stop offset="100%" style="stop-color:#000000;stop-opacity:1" />
                </linearGradient> -->
 <g>
  <title>background</title>
  <rect fill="none" id="canvas_background" height="402" width="582" y="-1" x="-1"/>
 </g>
 <g>
  <title>Layer 1</title>
  <path fill="#9705ff" id="svg_1" d="m256,128c-70.578,0 -128,57.422 -128,128s57.422,128 128,128s128,-57.422 128,-128s-57.422,-128 -128,-128zm0,240c-61.758,0 -112,-50.242 -112,-112s50.242,-112 112,-112s112,50.242 112,112s-50.242,112 -112,112zm0,-200c-48.64,0 -88,39.36 -88,88c0,48.64 39.36,88 88,88s88,-39.36 88,-88c0,-48.64 -39.36,-88 -88,-88zm45.76,105.6l-32.48,32.88c-7.36,7.44 -19.2,7.44 -26.56,0l-32.48,-32.88c-11.84,-11.92 -13.92,-31.2 -3.6,-44.56c12.4,-16.16 35.52,-17.28 49.36,-3.28c13.84,-14 36.96,-12.88 49.36,3.28c10.32,13.36 8.24,32.64 -3.6,44.56zm178.24,62.4l0,56c0,13.234 -10.766,24 -24,24l-8,0c-13.234,0 -24,-10.766 -24,-24l0,-56c0,-4.422 3.578,-8 8,-8l40,0c4.422,0 8,3.578 8,8zm0,-213.25l0,181.25c0,4.422 -3.578,8 -8,8l-40,0c-13.234,0 -24,-10.766 -24,-24l0,-75.547c0,-36.336 14.148,-70.484 39.836,-96.164l4.852,-4.852c4.602,-4.594 11.43,-5.961 17.438,-3.469c5.999,2.485 9.874,8.29 9.874,14.782zm-360,-19.312l0,87.445c0,8.07 -4.008,15.523 -10.711,19.953l-9.711,6.523c-2.258,1.493 -3.578,3.961 -3.578,6.641l0,78.242c4.875,4.396 8,10.692 8,17.758l0,72c0,13.234 -10.766,24 -24,24l-8,0c-13.234,0 -24,-10.766 -24,-24l0,-72c0,-7.065 3.125,-13.362 8,-17.758l0,-78.242c0,-2.68 -1.32,-5.148 -3.531,-6.609l-9.813,-6.594c-6.648,-4.391 -10.656,-11.844 -10.656,-19.914l0,-87.445c0,-4.422 3.578,-8 8,-8s8,3.578 8,8l0,87.445c0,2.672 1.32,5.141 3.523,6.594l9.82,6.602c6.657,4.398 10.657,11.859 10.657,19.921l0,72l8,0l0,-72c0,-8.063 4,-15.523 10.703,-19.953l9.719,-6.531c2.258,-1.492 3.578,-3.961 3.578,-6.633l0,-87.445c0,-4.422 3.578,-8 8,-8s8,3.578 8,8zm-64,72l0,-72c0,-4.422 3.578,-8 8,-8s8,3.578 8,8l0,72c0,4.422 -3.578,8 -8,8s-8,-3.579 -8,-8zm24,0l0,-72c0,-4.422 3.578,-8 8,-8s8,3.578 8,8l0,72c0,4.422 -3.578,8 -8,8s-8,-3.579 -8,-8z"/>
 </g>
</svg>